PathFileType	4	(X/Y/Z)	E:\Qualisys_Data\Carbon_Farble_Plate\Data\Amateur_Runner\S14\T3\S14T3V12_c3d.trc
DataRate	CameraRate	NumFrames	NumMarkers	Units	OrigDataRate	OrigDataStartFrame	OrigNumFrames
200.000000	200.000000	4	39	mm	200.000000	245	327
Frame#	Time	LSHO			RSHO			LICST			RICST			LASIS			LHEEL			RASIS			LTROC			RTROC			SACR			LTH1			LSK4			LTH2			LTH3			RHM5			LSK2			LTH4			RTH1			LTOE			RTH2			RTH3			RTH4			LLEP			RLEP			LSK1			LSK3			RSK1			LHM5			RSK2			LFT1			RSK3			RSK4			LLME			RLME			RTOE			RHEEL			RFT1			RFT2			LFT2			
		X1	Y1	Z1	X2	Y2	Z2	X3	Y3	Z3	X4	Y4	Z4	X5	Y5	Z5	X6	Y6	Z6	X7	Y7	Z7	X8	Y8	Z8	X9	Y9	Z9	X10	Y10	Z10	X11	Y11	Z11	X12	Y12	Z12	X13	Y13	Z13	X14	Y14	Z14	X15	Y15	Z15	X16	Y16	Z16	X17	Y17	Z17	X18	Y18	Z18	X19	Y19	Z19	X20	Y20	Z20	X21	Y21	Z21	X22	Y22	Z22	X23	Y23	Z23	X24	Y24	Z24	X25	Y25	Z25	X26	Y26	Z26	X27	Y27	Z27	X28	Y28	Z28	X29	Y29	Z29	X30	Y30	Z30	X31	Y31	Z31	X32	Y32	Z32	X33	Y33	Z33	X34	Y34	Z34	X35	Y35	Z35	X36	Y36	Z36	X37	Y37	Z37	X38	Y38	Z38	X39	Y39	Z39	

246	1.225	1011.249572753906	1421.7841796875	-573.6112670898438	1112.578491210938	1427.49951171875	-296.5226440429688	1033.926879882812	971.2562255859376	-537.6151733398438	1088.9931640625	982.30322265625	-268.9540710449219	1083.053466796875	925.1905517578124	-516.3281860351562	1154.640747070312	73.3643569946289	-416.6116943359375	1108.964477539062	936.9603881835938	-287.9453735351562	962.656494140625	845.1475830078125	-552.49072265625	960.7835083007812	869.1765747070312	-211.1024475097656	921.1650390625	971.257080078125	-393.5125427246094	1108.576293945312	640.8365478515625	-559.5768432617188	1134.36474609375	274.7545776367188	-493.0619506835938	1047.560546875	614.3333129882812	-521.4699096679688	1164.470703125	562.7086181640625	-529.6357421875	539.0862426757812	146.2577667236328	-247.1973114013672	1123.317260742188	371.6126708984375	-511.8232727050781	1095.630493164062	531.1878662109375	-504.8843078613281	1024.8681640625	625.6403198242188	-241.2870483398438	1408.542114257812	109.6415557861328	-465.3241577148438	952.30029296875	648.573974609375	-224.1298370361328	994.3218994140624	531.203369140625	-264.0096740722656	916.6316528320312	555.6056518554688	-243.3459930419922	1154.419921875	473.8321228027344	-520.2135620117188	911.7572631835938	484.1956481933594	-251.4295043945312	1204.525390625	381.5404663085938	-518.2323608398438	1214.96044921875	280.8997497558594	-502.3060607910156	824.445556640625	396.0614013671875	-248.1495513916016	1337.812866210938	75.75186157226562	-519.0308837890625	775.8092041015625	467.9129638671875	-245.5086822509766	1171.597534179688	44.14222717285156	-392.3937683105469	735.0322265625	344.2406616210938	-259.7113342285156	697.1624145507812	412.9927062988281	-259.3836059570312	1202.364624023438	100.7719497680664	-477.2632141113281	567.66259765625	296.0161437988281	-276.0101623535156	575.2445678710938	82.05707550048828	-311.9715576171875	530.0621337890625	335.7577209472656	-334.8795471191406	507.7374267578125	316.6299438476562	-365.255126953125	505.2156982421875	333.5787658691406	-313.8515625	1160.65869140625	43.9021110534668	-444.7967834472656
247	1.23	1026.685546875	1417.0400390625	-574.9160766601562	1127.19775390625	1423.778198242188	-296.8181457519531	1048.326049804688	967.4738159179688	-538.204345703125	1103.33349609375	978.924072265625	-268.9739074707031	1097.496215820312	921.6183471679688	-516.646484375	1157.948364257812	73.83303833007812	-417.8973999023438	1123.3759765625	933.8177490234376	-288.1180114746094	977.314697265625	841.153076171875	-552.2206420898438	975.9719848632812	864.5353393554688	-211.4278106689453	935.4058837890624	966.8367309570312	-394.1451721191406	1124.571411132812	638.2741088867188	-557.8366088867188	1146.500244140625	272.7907104492188	-492.5697937011719	1063.228149414062	611.3955078125	-521.44091796875	1179.892333984375	559.24658203125	-528.6981201171875	552.484375	150.3577880859375	-248.021484375	1137.873291015625	370.1742553710938	-512.2384033203125	1110.88720703125	527.2666625976562	-504.8245544433594	1042.815551757812	621.6054077148438	-241.1791687011719	1415.870727539062	95.87714385986328	-460.161865234375	970.3767700195312	643.3948364257812	-223.6022491455078	1014.006530761719	527.1329956054688	-263.8769226074219	935.8494262695312	549.9077758789062	-243.0057220458984	1170.20654296875	470.7982482910156	-520.3764038085938	931.7911987304688	479.5540466308594	-250.9153594970703	1218.872680664062	378.2490844726562	-517.7855224609375	1227.379028320312	276.7681884765625	-501.5361328125	843.1980590820312	392.3753051757812	-247.5801696777344	1344.205200195312	64.72508239746094	-514.4420166015625	796.0942993164062	465.19873046875	-245.7863311767578	1173.242431640625	43.81592559814453	-393.0931701660156	752.7410278320312	342.7138061523438	-259.9430236816406	716.15869140625	412.1861267089844	-259.7584228515625	1208.655395507812	98.17205047607422	-477.4361267089844	584.7227172851562	298.6695861816406	-276.5310974121094	589.1221313476562	84.1861343383789	-311.0071411132812	547.6356201171875	338.6715087890625	-335.8459167480469	525.0292358398438	319.4180297851562	-365.6931762695312	522.6715698242188	336.6889343261719	-314.8870544433594	1163.65380859375	44.280517578125	-445.5296020507812
248	1.235	1042.192260742188	1412.223999023438	-576.2108764648438	1141.562377929688	1419.806030273438	-297.4932250976562	1062.96875	963.6619262695312	-538.9189453125	1117.227661132812	975.2820434570312	-268.8578796386719	1112.08740234375	918.2655639648438	-516.9624633789062	1160.156127929688	73.75187683105469	-418.9491271972656	1137.754516601562	930.1758422851562	-288.1654663085938	992.0844116210938	837.306640625	-552.4601440429688	990.802978515625	859.7852783203125	-211.8583221435547	949.2766723632812	962.5533447265624	-394.5316162109375	1140.484985351562	635.60400390625	-556.44482421875	1157.6494140625	271.7213745117188	-492.9306640625	1079.037475585938	608.1618041992188	-521.7311401367188	1196.234008789062	556.49560546875	-528.27490234375	567.5521240234375	153.6762237548828	-248.0677795410156	1152.430419921875	369.0895080566406	-511.8692932128906	1127.09326171875	524.1235961914062	-505.0877380371094	1060.892456054688	617.2156982421875	-241.4057159423828	1420.3017578125	83.18051147460938	-455.60205078125	988.2300415039062	638.534912109375	-223.1017303466797	1033.75927734375	522.55224609375	-263.3158569335938	955.07421875	544.401123046875	-242.4497222900391	1186.33154296875	468.5868835449219	-520.68603515625	951.8969116210938	473.8412780761719	-250.3190612792969	1234.328369140625	373.987548828125	-517.1739501953125	1238.477294921875	272.9882202148438	-500.7291259765625	862.3880615234375	388.7757263183594	-247.0094909667969	1347.908081054688	57.47206115722656	-510.9048461914062	816.7673950195312	462.4774780273438	-245.7685699462891	1173.797729492188	43.32368469238281	-393.8711242675781	771.0084228515625	340.8724060058594	-259.7225952148438	735.7425537109375	411.2680969238281	-259.9888305664062	1212.68359375	96.06564331054688	-478.4605712890625	601.0822143554688	298.8460388183594	-277.7686462402344	603.3529663085938	86.31746673583984	-310.2153625488281	565.5337524414062	341.4943237304688	-336.3721008300781	543.2095947265625	322.1878051757812	-366.6119689941406	540.6471557617188	339.4233703613281	-315.4910278320312	1162.88818359375	42.4316291809082	-446.0130920410156
249	1.24	1057.743286132812	1407.2529296875	-577.2694702148438	1156.201049804688	1415.441284179688	-297.9780578613281	1076.652587890625	959.69189453125	-539.5322265625	1131.072387695312	971.4437866210938	-269.1259155273438	1126.434936523438	914.7962646484376	-517.7364501953125	1161.599365234375	73.66899108886719	-419.7640380859375	1152.078125	926.52490234375	-288.1867980957031	1006.343200683594	832.884765625	-552.5897827148438	1005.857482910156	854.5213012695312	-212.4822692871094	963.3591918945312	957.925537109375	-395.200927734375	1158.995361328125	633.520751953125	-553.3939208984375	1167.916259765625	271.2610473632812	-494.2938537597656	1095.45458984375	604.8073120117188	-522.1339111328125	1212.654907226562	553.9749755859375	-527.5183715820312	583.384521484375	156.3776397705078	-248.0379180908203	1166.96728515625	368.7532348632812	-512.8953857421875	1143.657104492188	521.468017578125	-505.7994384765625	1079.264404296875	613.2771606445312	-241.2285919189453	1424.072021484375	74.41040802001953	-452.3302612304688	1006.307678222656	632.9967041015625	-222.7128601074219	1053.454833984375	517.8709716796875	-262.8718872070312	974.5480346679688	538.4452514648438	-241.882080078125	1203.438842773438	466.5260925292969	-521.646728515625	972.5536499023438	468.9637451171875	-249.3695373535156	1249.234375	370.4495544433594	-517.1215209960938	1249.108520507812	269.64404296875	-500.5255432128906	882.250244140625	384.8362731933594	-246.8978729248047	1349.936889648438	55.55670928955078	-510.968505859375	837.8233642578125	459.2098083496094	-245.8236389160156	1174.910034179688	43.52066802978516	-394.2750854492188	789.4680786132812	338.4783325195312	-259.79345703125	755.8089599609375	409.6971740722656	-260.0709533691406	1215.555419921875	93.81130981445312	-478.5115051269531	618.87841796875	300.203369140625	-278.3985900878906	617.79296875	88.04290008544922	-309.6756896972656	584.711669921875	343.4933471679688	-337.1386413574219	561.9254760742188	324.9097595214844	-367.6259765625	559.5231323242188	342.1825866699219	-316.8730163574219	1163.991333007812	42.16680526733398	-446.40966796875
